<?xml version="1.0" standalone="no"?>
<!DOCTYPE svg PUBLIC "-//W3C//DTD SVG 20010904//EN"
 "http://www.w3.org/TR/2001/REC-SVG-20010904/DTD/svg10.dtd">
<svg version="1.0" xmlns="http://www.w3.org/2000/svg"
 width="421.000000pt" height="421.000000pt" viewBox="0 0 421.000000 421.000000"
 preserveAspectRatio="xMidYMid meet">
<metadata>
Created by potrace 1.11, written by Peter Selinger 2001-2013
</metadata>
<g transform="translate(0.000000,421.000000) scale(0.100000,-0.100000)"
fill="#000000" stroke="none">
<path d="M2230 3919 c-41 -10 -144 -30 -228 -44 -170 -29 -308 -70 -392 -117
-68 -38 -184 -131 -212 -171 -17 -24 -23 -26 -29 -14 -5 9 -3 31 6 56 16 46
12 49 -28 23 -61 -41 -98 -118 -112 -236 l-7 -56 -37 0 c-57 0 -108 -18 -131
-47 -31 -39 -26 -53 19 -53 30 0 44 -6 55 -22 15 -20 14 -23 -8 -37 -115 -78
-173 -256 -163 -501 7 -154 21 -220 78 -376 l41 -111 -26 -38 c-43 -62 -38
-162 19 -412 l5 -23 1030 0 c971 0 1029 1 1034 18 11 34 38 178 46 246 10 81
-7 161 -39 187 l-20 17 25 93 c62 226 64 233 64 340 0 251 -82 495 -232 686
-26 33 -46 67 -43 75 3 7 -7 20 -24 30 -18 10 -51 52 -86 113 -135 228 -266
355 -368 355 -29 0 -37 -5 -47 -30 -16 -38 -84 -100 -110 -100 -26 0 -26 24 0
91 20 49 21 80 3 78 -4 -1 -42 -10 -83 -20z m-618 -1686 c-44 -21 -80 -66 -88
-108 -15 -82 24 -151 102 -181 38 -14 51 -15 87 -5 73 22 117 78 117 150 0 51
-11 80 -45 114 -38 37 -18 34 29 -5 43 -36 86 -117 86 -165 0 -33 -33 -68 -94
-100 -42 -22 -155 -29 -210 -13 -51 14 -114 64 -146 115 -19 32 -20 36 -6 70
9 20 25 49 36 65 22 31 111 80 144 80 16 0 13 -4 -12 -17z m1083 -21 c25 -17
51 -49 68 -84 27 -52 28 -57 14 -84 -22 -42 -76 -90 -127 -113 -127 -58 -330
8 -330 106 0 60 51 147 103 174 19 11 18 9 -3 -22 -36 -49 -39 -133 -8 -178
37 -54 72 -75 126 -75 177 0 224 233 62 304 -22 9 -20 10 15 6 22 -3 58 -18
80 -34z m-1050 -62 c0 -18 -6 -26 -23 -28 -24 -4 -38 18 -28 44 3 9 15 14 28
12 17 -2 23 -10 23 -28z m860 0 c0 -29 -38 -41 -48 -16 -10 26 4 47 27 44 15
-2 21 -10 21 -28z"/>
<path d="M901 1696 c-15 -18 -15 -91 -1 -359 5 -100 12 -248 16 -330 l7 -147
-54 -58 c-66 -69 -91 -108 -124 -196 -27 -71 -85 -289 -85 -318 0 -16 11 -18
94 -18 l94 0 6 33 c4 17 11 98 16 178 7 103 15 161 29 195 l19 49 6 -45 c3
-25 10 -119 14 -209 8 -162 8 -164 36 -187 l27 -24 1104 0 1104 0 26 23 c25
21 28 31 36 132 4 61 9 148 9 195 1 47 5 94 10 105 8 21 7 23 41 -64 5 -13 14
-90 19 -170 5 -80 12 -161 16 -178 l7 -33 93 0 c69 0 94 3 94 13 0 22 -40 181
-66 262 -40 124 -74 185 -142 255 l-64 65 12 235 c21 437 24 586 10 595 -7 4
-16 2 -20 -4 -5 -9 -261 -10 -1106 -4 -604 4 -1135 7 -1179 7 -44 -1 -83 3
-86 8 -3 5 -11 2 -18 -6z m1279 -539 c0 -21 -28 -54 -50 -60 -26 -7 -26 13 1
47 22 27 49 35 49 13z m46 -88 c9 -7 7 -19 -7 -45 -19 -39 -13 -78 17 -100 15
-12 10 -40 -9 -46 -7 -2 -57 43 -112 101 l-100 104 55 -6 c30 -3 64 -1 75 3
22 10 63 4 81 -11z"/>
</g>
</svg>
